<?xml version="1.0" encoding="utf-8"?>
<!-- Generator: Adobe Illustrator 23.0.0, SVG Export Plug-In . SVG Version: 6.00 Build 0)  -->
<svg version="1.1" id="Playing" xmlns="http://www.w3.org/2000/svg" xmlns:xlink="http://www.w3.org/1999/xlink" x="0px" y="0px"
	 viewBox="0 0 1920 1080" style="enable-background:new 0 0 1920 1080;" xml:space="preserve">
<style type="text/css">
	.st0{opacity:0.1;fill:#2A94F4;}
	.st1{fill:#0B4870;}
	.st2{fill:#B97A59;}
	.st3{opacity:0.5;fill:#F5A171;}
	.st4{fill:#FFBE55;}
	.st5{fill:#A56950;}
	.st6{fill:#F6E8FF;}
	.st7{fill:#0E538C;}
	.st8{fill:#F5A171;}
	.st9{fill:url(#SVGID_1_);}
	.st10{fill:#341675;}
	.st11{fill:#A1C9E2;}
	.st12{fill:#F7F7F7;}
</style>
<ellipse class="st0" cx="998.1" cy="1043" rx="186" ry="37"/>
<path class="st0" d="M991.1,14.5c-271.5,0-491.6,220.1-491.6,491.6s220.1,491.6,491.6,491.6s491.6-220.1,491.6-491.6
	S1262.6,14.5,991.1,14.5z M1311.2,548.1l-455,314.9c-23.5,16.3-55.7-0.6-55.7-29.2V204.1c0-28.6,32.1-45.5,55.7-29.2l455,314.9
	C1331.6,503.9,1331.6,534,1311.2,548.1z"/>
<path class="st1" d="M947.4,156.2c0,0-42.1-0.9-47.9,80.4c-5.8,81.3-15,107.9-64.9,127.9s-65.3,85.7-28.5,116.5
	s189.6,134.6,209.2,10.6s40.9-75.1,72.9-122.9c57.6-86-39.1-200-75-207.3C977.3,154.1,947.4,156.2,947.4,156.2z"/>
<g>
	<g>
		<path class="st2" d="M1047.7,345.9l1-1.5l0.8-1.2l1.1-1.9l2.3-3.7l4.5-7.3l8.9-14.6l17.8-29.2c11.8-19.5,23.6-38.9,35.4-58.8
			l1.1-1.9l1.2-2.2c0.8-1.5,1.7-3.1,2.4-4.5c1.3-2.8,2.7-5.6,3.9-8.3c2.4-5.5,4.6-10.9,6.9-16.3c4.3-10.8,8.4-21.5,12.4-32.3
			c8-21.5,19.1-65.9,19.1-65.9l-16.7-4.9c0,0-23.2,38.3-31.9,59.1c-4.4,10.4-8.8,20.8-13.4,30.9c-2.3,5.1-4.6,10.1-7,14.9
			c-1.2,2.5-2.4,4.7-3.6,7c-0.6,1.1-1.2,2-1.7,3l-0.9,1.5l-1.1,1.7c-12.3,18.7-25.1,37.7-37.8,56.5l-37.6,55.5l-1,1.5
			c-6.4,9.4-3.9,22.2,5.5,28.5c9.4,6.4,22.2,3.9,28.5-5.5C1047.6,346.1,1047.7,345.9,1047.7,345.9z"/>
		<path class="st2" d="M1166.5,99.1c0,0,9.3-32.9-2.9-45.6c-12.2-12.6-25.6-2.2-23,12.6c2.6,14.8,7.8,30.5,5.3,36.9
			c-2.4,6.3,7.8,8.4,7.8,8.4L1166.5,99.1z"/>
	</g>
</g>
<path class="st3" d="M1032.9,327.2c0.9,0.4,8.1,67.4,5.5,77.2c-2.2,8.3-13.3,25.1-19.6,33.9c-1.7-11.5-3.4-22.9-4.9-34.3l-3.9-30.1
	c0.4-2.1,0.9-4.2,1.4-6.4C1018.4,336,1032,326.9,1032.9,327.2z"/>
<path class="st4" d="M1047,418c-1.9,8-1.2,79.4,1.3,120.1H942.6c1.6-2.4,18.3-48.4,14.5-59.8c-10.5-31.5-31.8-95.4-33.6-102.2
	c-2.4-9.1,0.5-55.4,2.4-57.3c1.9-1.9,37-16.3,40-16s34-7.8,34-7.8l13.1,11.7c1.3,0.3,11.5-3.1,18.5,1.9c0.1,0.6,0.4,1.1,0.8,1.7
	c9.3,12.5,23.1,65.7,24.1,67.4C1058.7,382,1065.7,403.6,1047,418z"/>
<path class="st5" d="M1012.9,306.5l0.1,0.2H955c-0.1-0.2-0.1-0.5-0.1-0.7c18-13.1-2.9-75.8-2.9-81.4c0,0,48.7,11.2,61.3,24.5
	C982.6,284.6,1012.9,306.5,1012.9,306.5z"/>
<path class="st2" d="M944.1,244.1c-2.7-12.1-5.8-24.1-5.8-36.4c0-81.4,92.5-55.9,92.5-21.9c0,20.4,2.9,57-10.2,81
	c-5.2,9.5-16,14.4-26.5,12.1c-25.8-5.6-46-16.8-49.9-34.4L944.1,244.1z"/>
<path class="st2" d="M954.8,344.4l-0.6,1.7l-0.6,1.3l-0.9,2l-1.7,4l-3.4,7.9l-6.8,15.7l-13.6,31.4c-9.1,21-18.1,41.7-27.5,62.8
	l-0.9,2l-1.1,2.3c-0.8,1.5-1.5,3.1-2.3,4.5c-1.5,2.7-3,5.5-4.6,8c-3.1,5.1-6.2,10.1-9.3,15c-6.3,9.8-12.7,19.3-19.1,28.8
	c-12.9,19-42.7,53.7-42.7,53.7l-13.7-10.8c0,0,17.8-41,29.8-60.2c5.9-9.6,11.8-19.2,17.5-28.8c2.8-4.8,5.5-9.6,8.1-14.4
	c1.3-2.4,2.4-4.7,3.6-7c0.5-1.1,0.9-2.1,1.4-3.1l0.7-1.6l0.8-1.9c8.2-20.9,16.3-42.3,24.3-63.5l23.5-62.7l0.6-1.7
	c4-10.6,15.8-16,26.4-12c10.6,4,16,15.8,12,26.4C954.9,344.2,954.8,344.3,954.8,344.4z"/>
<path class="st2" d="M822.1,583.9c0,0-21.5,26.6-38.8,24c-17.3-2.6-16.6-19.6-3-26c13.6-6.4,29.4-11.3,33.2-17s11.3,1.5,11.3,1.5
	L822.1,583.9z"/>
<path class="st6" d="M1017.7,527.6c22.5,0,29.1-20.3,29.1-20.3l9.3,36.9c-5.6,4.7-16.3,2.3-16.8,9.6c-3.2,0.2-7.4-0.2-12.8-1.6
	c-30.4-7.9-57.7-10.1-57.7-10.1s-3.1-9.7-5.7-15.9c-2.6-6.2-10.6-18.9-10.6-18.9S995.3,527.6,1017.7,527.6z"/>
<path class="st1" d="M1112.2,1035.7c3.1-0.1,3.9-4.2,1.1-5.5c-9.4-4.1-19.7-8.9-24.8-9.5c-7.8-1-30.8-1-30.8-1s-2.4,17.1-1,17.1
	C1057.7,1036.9,1092.1,1036.2,1112.2,1035.7z"/>
<path class="st1" d="M946.9,1041.8c3.1-0.1,3.9-4.2,1.1-5.5c-9.4-4.1-19.7-8.9-24.8-9.5c-7.8-1-30.8-1-30.8-1s-2.4,17.1-1,17.1
	C892.4,1043,926.8,1042.2,946.9,1041.8z"/>
<path class="st7" d="M1141.5,739.4L1047,507.2l-94.4-1c-3.2,6.1-27.4,39.7-30.6,70.7c-3,28.7,43.6,168,54.1,208.1
	c0.3-0.1-83.3,240.9-83.3,240.9l22.6-0.1l103.4-209.3c9.9-17.5,13.6-37.9,10.4-57.7l-11.4-148c27.8,59.2,75.2,151.2,77.5,156.3
	c-23.1,114.5-38,252.5-38,252.5l23.2,0.5l64.2-222.1C1150.3,778.7,1149.2,758,1141.5,739.4z"/>
<path class="st8" d="M950.7,224.4c0,6.7-4.9,12.2-10.9,12.2c-6,0-10.9-5.5-10.9-12.2s4.9-12.2,10.9-12.2
	C945.9,212.2,950.7,217.7,950.7,224.4z"/>
<path class="st1" d="M964.9,178.2c0,0,3.8,43.1-25,38.2c0,0-30.3-14,0-52.3s88-8.7,93.3,16.3s-2.9,48.7-2.9,48.7s5.4-43-9.8-51.7
	C1001.4,166.5,991.1,199,964.9,178.2z"/>
<g>
	
		<linearGradient id="SVGID_1_" gradientUnits="userSpaceOnUse" x1="-2052.8" y1="151.9017" x2="-2052.8" y2="348.7197" gradientTransform="matrix(-0.9988 -4.960000e-02 0.1118 1.0621 -1130.4406 -106.151)">
		<stop  offset="0" style="stop-color:#FFAC85"/>
		<stop  offset="1" style="stop-color:#FF8E59"/>
	</linearGradient>
	<path class="st9" d="M931,238.8c-0.9-8.5,4.9-15.1,12.9-14.7c8,0.4,15.2,7.6,16.1,16.2c0.9,8.5-4.9,15.1-12.9,14.7
		C939.2,254.6,931.9,247.3,931,238.8z"/>
	<ellipse class="st10" cx="942.3" cy="237.5" rx="20.6" ry="23.4"/>
	<path class="st11" d="M971.4,234.3c0,15.9-13.6,28.8-27.1,28.8c-13.5,0-24.4-12.9-24.4-28.8s10.9-28.8,24.4-28.8
		C957.9,205.5,971.4,218.4,971.4,234.3z"/>
	<ellipse class="st12" cx="942.4" cy="234.3" rx="22.5" ry="28.8"/>
	<path class="st12" d="M934,208.8c0-1.1,1.5-53.6,49.4-57.6c10.3-1,38.8,11.4,38.8,11.4s-38.8-16.1-60.8,8.7
		c-11.1,12.6-13.8,38.1-13.8,38.1L934,208.8z"/>
</g>
<path class="st4" d="M630.9,880.6C630.9,880.6,630.9,880.6,630.9,880.6C630.9,880.6,630.9,880.5,630.9,880.6l-0.6-112.2h-6.1
	l0.5,98.6c-4.5-4.3-11.1-7-18.5-7c-13.6,0-24.6,9.2-24.6,20.5c0,11.3,11,20.3,24.6,20.3c13.5,0,24.4-8.4,24.6-20.4h0.2V880.6z"/>
<path class="st1" d="M1228.4,464.5c-2.7-6.7-9.8-11-18.2-11c-4.7,0-9.3,1.4-13.1,3.9c-2.9,1.9-5.1,4.3-6.8,7.1l0.4-85h-6.1L1184,492
	h0c0,0.7,0,1.3,0,1.9l0,3.1l3.1,0.1c0,0,1-0.1,2.6-0.1c0,0,0,0,0,0c5.4,0,15.7-0.4,23.7-3.8C1226,487.9,1232.6,475.1,1228.4,464.5z
	 M1210.9,487.3c-6.8,2.9-15.9,3.4-20.3,3.4c0.4-14.7,3.5-23.3,10.1-27.7c2.7-1.8,6.1-2.8,9.4-2.8c5.7,0,10.5,2.7,12.1,6.8
	C1225.2,474.2,1220.1,483.4,1210.9,487.3z"/>
<g>
	<path class="st4" d="M1458.1,610.2c9.9,0,18,6.2,18,13.9c0,7.7-8.1,13.9-18,13.9c-9.9,0-18-6.2-18-13.9
		C1440.1,616.5,1448.2,610.2,1458.1,610.2 M1458.1,603.6c-13.6,0-24.6,9.2-24.6,20.5c0,11.3,11,20.5,24.6,20.5
		c13.6,0,24.6-9.2,24.6-20.5C1482.7,612.8,1471.7,603.6,1458.1,603.6L1458.1,603.6z"/>
</g>
<path class="st4" d="M876.8,115.5C876.8,115.5,876.8,115.5,876.8,115.5C876.8,115.5,876.8,115.5,876.8,115.5L876.4,3.4h0l0-1.8
	L790,12.3l0.1,13.4l0.4,86.2c-4.5-4.3-11.1-7-18.5-7c-13.6,0-24.6,9.2-24.6,20.5c0,11.3,11,20.3,24.6,20.3
	c13.5,0,24.4-8.3,24.6-20.4h0v0.2c0,0,0,0,0,0c0,0,0,0,0,0L796.3,25l74-9.6l0.4,86.6c-4.5-4.3-11.1-7-18.5-7
	c-13.6,0-24.6,9.2-24.6,20.5c0,11.3,11,20.3,24.6,20.3c13.5,0,24.4-8.3,24.6-20.4h0V115.5z"/>
<path class="st1" d="M1348.3,171.9c-5-2.9-11.2-1.8-13.6,2.3l-0.1,0l0,0c0,0,0,0,0,0c0,0,0,0,0,0l-21.6,37.7l-29.9-12.4l18.7-32.6
	c0.8,2.6,2.7,5,5.4,6.6c5.1,2.9,11.2,1.9,13.7-2.4c2.5-4.2,0.3-10-4.8-13c-5-2.9-11.2-1.8-13.6,2.3l-0.1,0l0,0c0,0,0,0,0,0
	c0,0,0,0,0,0l-24.1,42.1l0,0l-0.4,0.7l34.7,14.7l2.8-5l18.6-32.5c0.8,2.6,2.7,5,5.4,6.6c5.1,2.9,11.2,1.9,13.7-2.3
	S1353.4,174.9,1348.3,171.9z"/>
<path class="st1" d="M662,285.9c-5.8,0.8-9.9,5.5-9.3,10.2l-0.1,0l0,0c0,0,0,0,0,0c0,0,0,0,0,0l6.1,43.1l-31.2,8.5l-5.3-37.2
	c2.2,1.6,5.2,2.3,8.4,1.9c5.8-0.8,10-5.4,9.3-10.3c-0.7-4.9-5.9-8.1-11.8-7.3c-5.8,0.8-9.9,5.5-9.3,10.2l-0.1,0l0,0c0,0,0,0,0,0
	c0,0,0,0,0,0l6.9,48l0,0l0.1,0.8l36.5-9.7l-0.9-5.7l-5.3-37c2.2,1.6,5.2,2.3,8.4,1.9c5.8-0.8,10-5.4,9.3-10.2S667.8,285.1,662,285.9
	z"/>
<path class="st4" d="M1380.6,921.6C1380.6,921.6,1380.6,921.6,1380.6,921.6C1380.6,921.6,1380.6,921.6,1380.6,921.6l-0.4-112.2h0
	l0-1.9l-86.4,10.8l0.1,13.3l0.4,86.3c-4.5-4.3-11.1-7-18.5-7c-13.6,0-24.6,9.2-24.6,20.5c0,11.3,11,20.2,24.6,20.2
	c13.4,0,24.3-8.3,24.6-20.4h0v0.2c0,0,0,0,0-0.1c0,0,0,0,0-0.1l-0.3-87.7l74-10.1l0.3,74.5c-4.5-4.3-11.1-7-18.5-7
	c-13.6,0-24.6,9.2-24.6,20.5c0,11.3,11,20.8,24.6,20.8c13.4,0,24.3-8.8,24.6-19.8h0V921.6z M1300.1,837l0-6l74-9.6l0,5.5L1300.1,837
	z"/>
<path class="st4" d="M1561.3,336.5c-8.7,0-15.8,6.1-16,13.2h-0.1v0c0,0,0,0,0,0c0,0,0.1,0,0.1,0l0.2,56.9l-48,6.6l-0.2-48.4
	c2.9,2.8,7.2,4.5,12,4.5c8.8,0,16-6,16-13.3c0-7.4-7.1-13.2-16-13.2c-8.7,0-15.8,6.1-16,13.2h-0.1v0c0,0,0,0,0,0c0,0,0.1,0,0.1,0
	l0.3,72.6h0l0,1.3l56.1-7l-0.1-8.6l-0.3-56c2.9,2.8,7.2,4.5,12,4.5c8.8,0,16-5.9,16-13.3C1577.3,342.4,1570.1,336.5,1561.3,336.5z
	 M1545.5,411l0,3.9l-48,6.3l0-3.5L1545.5,411z"/>
<path class="st4" d="M590.2,520.8c-8.7,0-15.8,6.1-16,13.2h-0.1v0c0,0,0,0,0,0c0,0,0.1,0,0.1,0l0.2,56.9l-48,6.6l-0.2-48.4
	c2.9,2.8,7.2,4.5,12,4.5c8.8,0,16-6,16-13.3c0-7.4-7.1-13.2-16-13.2c-8.7,0-15.8,6.1-16,13.2h-0.1v0c0,0,0,0,0,0c0,0,0.1,0,0.1,0
	l0.3,72.6h0l0,1.3l56.1-7l-0.1-8.6l-0.3-56c2.9,2.8,7.2,4.5,12,4.5c8.8,0,16-5.9,16-13.3C606.2,526.7,599.1,520.8,590.2,520.8z
	 M574.5,595.3l0,3.9l-48,6.3l0-3.5L574.5,595.3z"/>
</svg>
